<svg width="1449" height="258" viewBox="0 0 1449 258" fill="none" xmlns="http://www.w3.org/2000/svg">
<path d="M0 97L46 52L90 97C83 102.333 66 117.5 46 117.5C27.3882 117.5 7.66667 104.667 0 97Z" fill="white"/>
<path d="M70 165.5L116 210.5L160 165.5C153 160.167 136 145 116 145C97.3882 145 77.6667 157.833 70 165.5Z" fill="white"/>
<path d="M115.5 52L160.5 98L115.5 142C110.167 135 95 118 95 98C95 79.3882 107.833 59.6667 115.5 52Z" fill="white"/>
<path d="M45 120L2.01072e-06 166L45 210C50.3333 203 65.5 186 65.5 166C65.5 147.388 52.6667 127.667 45 120Z" fill="white"/>
<path d="M204.6 192V62.4H255.81C259.23 62.4 262.41 62.64 265.35 63.12C272.19 64.2 278.01 66.6 282.81 70.32C287.61 73.98 291.24 78.66 293.7 84.36C296.16 90 297.39 96.3 297.39 103.26C297.39 110.22 296.16 116.55 293.7 122.25C291.24 127.89 287.58 132.57 282.72 136.29C277.92 139.95 272.13 142.32 265.35 143.4C262.41 143.88 259.23 144.12 255.81 144.12H220.62V192H204.6ZM255.27 128.91C258.33 128.91 261.03 128.64 263.37 128.1C269.19 126.78 273.57 123.78 276.51 119.1C279.51 114.42 281.01 109.14 281.01 103.26C281.01 97.38 279.51 92.1 276.51 87.42C273.57 82.74 269.19 79.74 263.37 78.42C261.03 77.88 258.33 77.61 255.27 77.61H220.62V128.91H255.27ZM377.527 111.09C378.787 113.85 379.627 116.91 380.047 120.27C380.467 123.57 380.677 127.44 380.677 131.88V192H366.457V176.88C358.717 188.76 346.717 194.7 330.457 194.7C323.437 194.7 317.437 193.41 312.457 190.83C307.477 188.19 303.727 184.68 301.207 180.3C298.687 175.92 297.427 171.06 297.427 165.72C297.427 151.38 305.377 141.87 321.277 137.19C325.957 135.93 331.327 134.82 337.387 133.86C343.447 132.9 350.707 131.85 359.167 130.71L364.927 129.9C364.687 122.04 362.707 116.28 358.987 112.62C355.267 108.9 349.267 107.04 340.987 107.04C334.867 107.04 329.617 108.45 325.237 111.27C320.917 114.03 317.917 118.29 316.237 124.05L301.027 119.46C303.367 110.76 307.927 104.04 314.707 99.3C321.547 94.5 330.367 92.1 341.167 92.1C350.107 92.1 357.697 93.72 363.937 96.96C370.237 100.14 374.767 104.85 377.527 111.09ZM332.887 181.29C338.467 181.29 343.387 180.3 347.647 178.32C351.907 176.28 355.357 173.58 357.997 170.22C360.637 166.8 362.347 163.02 363.127 158.88C363.727 156.84 364.117 154.56 364.297 152.04C364.537 149.52 364.687 146.7 364.747 143.58L360.337 144.12C351.877 145.26 345.367 146.19 340.807 146.91C336.307 147.63 332.197 148.53 328.477 149.61C323.857 151.05 320.167 153.03 317.407 155.55C314.707 158.07 313.357 161.43 313.357 165.63C313.357 168.45 314.047 171.06 315.427 173.46C316.807 175.8 318.967 177.69 321.907 179.13C324.847 180.57 328.507 181.29 332.887 181.29ZM463.657 94.8H477.877V192.63C477.877 198.45 477.487 203.43 476.707 207.57C474.847 217.71 470.287 225.3 463.027 230.34C455.767 235.38 446.227 237.9 434.407 237.9C426.427 237.9 418.987 236.07 412.087 232.41C405.247 228.81 399.877 223.53 395.977 216.57L410.647 208.83C412.927 213.39 416.197 216.78 420.457 219C424.777 221.28 429.457 222.42 434.497 222.42C452.857 222.42 461.947 212.43 461.767 192.45V183.09C458.227 186.81 454.057 189.69 449.257 191.73C444.457 193.71 439.117 194.7 433.237 194.7C424.357 194.7 416.617 192.48 410.017 188.04C403.477 183.54 398.437 177.42 394.897 169.68C391.417 161.88 389.677 153.09 389.677 143.31C389.677 133.59 391.417 124.86 394.897 117.12C398.437 109.32 403.477 103.2 410.017 98.76C416.617 94.32 424.327 92.1 433.147 92.1C439.627 92.1 445.417 93.27 450.517 95.61C455.617 97.95 459.997 101.31 463.657 105.69V94.8ZM435.217 180.03C444.637 180.03 451.717 176.7 456.457 170.04C461.257 163.38 463.657 154.47 463.657 143.31C463.657 132.15 461.287 123.27 456.547 116.67C451.807 110.07 444.847 106.77 435.667 106.77C429.307 106.77 423.937 108.36 419.557 111.54C415.237 114.72 411.997 119.07 409.837 124.59C407.737 130.05 406.687 136.29 406.687 143.31C406.687 150.39 407.737 156.69 409.837 162.21C411.997 167.73 415.207 172.08 419.467 175.26C423.787 178.44 429.037 180.03 435.217 180.03ZM535.406 194.7C525.866 194.7 517.556 192.54 510.476 188.22C503.456 183.84 498.056 177.78 494.276 170.04C490.496 162.24 488.606 153.33 488.606 143.31C488.606 133.23 490.526 124.32 494.366 116.58C498.206 108.84 503.666 102.84 510.746 98.58C517.826 94.26 526.046 92.1 535.406 92.1C544.946 92.1 553.256 94.26 560.336 98.58C567.416 102.9 572.846 108.93 576.626 116.67C580.406 124.41 582.296 133.29 582.296 143.31C582.296 153.45 580.376 162.42 576.536 170.22C572.756 177.96 567.326 183.99 560.246 188.31C553.166 192.57 544.886 194.7 535.406 194.7ZM535.406 179.49C545.186 179.49 552.596 176.25 557.636 169.77C562.736 163.23 565.286 154.41 565.286 143.31C565.286 132.09 562.736 123.3 557.636 116.94C552.536 110.52 545.126 107.31 535.406 107.31C525.566 107.31 518.126 110.55 513.086 117.03C508.106 123.51 505.616 132.27 505.616 143.31C505.616 154.53 508.166 163.38 513.266 169.86C518.426 176.28 525.806 179.49 535.406 179.49ZM659.892 62.4H676.002V192H661.692V181.02C658.032 185.4 653.652 188.79 648.552 191.19C643.452 193.53 637.692 194.7 631.272 194.7C622.392 194.7 614.652 192.48 608.052 188.04C601.512 183.54 596.472 177.42 592.932 169.68C589.452 161.88 587.712 153.09 587.712 143.31C587.712 133.59 589.452 124.86 592.932 117.12C596.472 109.32 601.512 103.2 608.052 98.76C614.652 94.32 622.362 92.1 631.182 92.1C637.122 92.1 642.492 93.09 647.292 95.07C652.152 97.05 656.352 99.9 659.892 103.62V62.4ZM633.252 180.03C642.672 180.03 649.752 176.7 654.492 170.04C659.292 163.38 661.692 154.47 661.692 143.31C661.692 132.15 659.322 123.27 654.582 116.67C649.842 110.07 642.882 106.77 633.702 106.77C627.342 106.77 621.972 108.36 617.592 111.54C613.272 114.72 610.032 119.07 607.872 124.59C605.772 130.05 604.722 136.29 604.722 143.31C604.722 150.39 605.772 156.69 607.872 162.21C610.032 167.73 613.242 172.08 617.502 175.26C621.822 178.44 627.072 180.03 633.252 180.03ZM766.917 111.09C768.177 113.85 769.017 116.91 769.437 120.27C769.857 123.57 770.067 127.44 770.067 131.88V192H755.847V176.88C748.107 188.76 736.107 194.7 719.847 194.7C712.827 194.7 706.827 193.41 701.847 190.83C696.867 188.19 693.117 184.68 690.597 180.3C688.077 175.92 686.817 171.06 686.817 165.72C686.817 151.38 694.767 141.87 710.667 137.19C715.347 135.93 720.717 134.82 726.777 133.86C732.837 132.9 740.097 131.85 748.557 130.71L754.317 129.9C754.077 122.04 752.097 116.28 748.377 112.62C744.657 108.9 738.657 107.04 730.377 107.04C724.257 107.04 719.007 108.45 714.627 111.27C710.307 114.03 707.307 118.29 705.627 124.05L690.417 119.46C692.757 110.76 697.317 104.04 704.097 99.3C710.937 94.5 719.757 92.1 730.557 92.1C739.497 92.1 747.087 93.72 753.327 96.96C759.627 100.14 764.157 104.85 766.917 111.09ZM722.277 181.29C727.857 181.29 732.777 180.3 737.037 178.32C741.297 176.28 744.747 173.58 747.387 170.22C750.027 166.8 751.737 163.02 752.517 158.88C753.117 156.84 753.507 154.56 753.687 152.04C753.927 149.52 754.077 146.7 754.137 143.58L749.727 144.12C741.267 145.26 734.757 146.19 730.197 146.91C725.697 147.63 721.587 148.53 717.867 149.61C713.247 151.05 709.557 153.03 706.797 155.55C704.097 158.07 702.747 161.43 702.747 165.63C702.747 168.45 703.437 171.06 704.817 173.46C706.197 175.8 708.357 177.69 711.297 179.13C714.237 180.57 717.897 181.29 722.277 181.29Z" fill="white"/>
<path d="M847.88 192H823.4V62.4H847.88V192ZM918.962 91.92C930.362 91.92 938.852 94.83 944.432 100.65C950.072 106.47 953.552 112.62 954.872 119.1C956.252 125.58 956.942 131.7 956.942 137.46V192H932.102V146.1C932.102 141.18 931.742 136.56 931.022 132.24C930.302 127.92 928.382 123.96 925.262 120.36C922.202 116.76 917.522 114.96 911.222 114.96C905.582 114.96 900.722 116.91 896.642 120.81C892.562 124.65 890.522 131.94 890.522 142.68V192H865.682V94.8H887.462V104.79C891.122 100.71 895.592 97.56 900.872 95.34C906.152 93.06 912.182 91.92 918.962 91.92ZM1032.18 62.4H1056.84V192H1035.24V186.42C1027.98 191.94 1019.22 194.7 1008.96 194.7C1000.2 194.7 992.398 192.48 985.558 188.04C978.778 183.54 973.498 177.39 969.718 169.59C965.998 161.79 964.138 153.06 964.138 143.4C964.138 133.56 966.028 124.74 969.808 116.94C973.648 109.14 979.048 103.05 986.008 98.67C993.028 94.29 1001.1 92.1 1010.22 92.1C1018.56 92.1 1025.88 94.08 1032.18 98.04V62.4ZM1012.92 172.92C1027.8 172.92 1035.24 163.08 1035.24 143.4C1035.24 134.16 1033.5 126.93 1030.02 121.71C1026.6 116.49 1021.2 113.88 1013.82 113.88C1008.54 113.88 1004.13 115.2 1000.59 117.84C997.048 120.42 994.408 123.93 992.668 128.37C990.928 132.81 990.058 137.82 990.058 143.4C990.058 152.1 991.978 159.21 995.818 164.73C999.658 170.19 1005.36 172.92 1012.92 172.92ZM1094.01 150.24C1094.91 157.2 1097.28 162.54 1101.12 166.26C1105.02 169.98 1110.24 171.84 1116.78 171.84C1121.52 171.84 1125.6 170.79 1129.02 168.69C1132.5 166.59 1135.14 163.56 1136.94 159.6L1161.42 166.62C1159.02 172.44 1155.63 177.48 1151.25 181.74C1146.87 185.94 1141.83 189.15 1136.13 191.37C1130.43 193.59 1124.46 194.7 1118.22 194.7C1108.38 194.7 1099.62 192.57 1091.94 188.31C1084.32 184.05 1078.35 178.11 1074.03 170.49C1069.77 162.87 1067.64 154.26 1067.64 144.66C1067.64 134.22 1069.71 125.04 1073.85 117.12C1078.05 109.14 1083.87 102.99 1091.31 98.67C1098.75 94.29 1107.24 92.1 1116.78 92.1C1126.14 92.1 1134.27 94.17 1141.17 98.31C1148.07 102.45 1153.35 108.33 1157.01 115.95C1160.73 123.57 1162.59 132.51 1162.59 142.77C1162.59 144.39 1162.47 146.88 1162.23 150.24H1094.01ZM1117.86 113.34C1104.96 113.34 1097.22 119.58 1094.64 132.06H1137.48C1136.64 125.52 1134.63 120.78 1131.45 117.84C1128.33 114.84 1123.8 113.34 1117.86 113.34ZM1188.03 192H1159.23L1193.97 142.86L1159.95 94.8H1188.75L1208.19 123.6L1227.27 94.8H1256.07L1222.05 142.86L1256.97 192H1228.17L1208.19 162.12L1188.03 192ZM1279.91 150.24C1280.81 157.2 1283.18 162.54 1287.02 166.26C1290.92 169.98 1296.14 171.84 1302.68 171.84C1307.42 171.84 1311.5 170.79 1314.92 168.69C1318.4 166.59 1321.04 163.56 1322.84 159.6L1347.32 166.62C1344.92 172.44 1341.53 177.48 1337.15 181.74C1332.77 185.94 1327.73 189.15 1322.03 191.37C1316.33 193.59 1310.36 194.7 1304.12 194.7C1294.28 194.7 1285.52 192.57 1277.84 188.31C1270.22 184.05 1264.25 178.11 1259.93 170.49C1255.67 162.87 1253.54 154.26 1253.54 144.66C1253.54 134.22 1255.61 125.04 1259.75 117.12C1263.95 109.14 1269.77 102.99 1277.21 98.67C1284.65 94.29 1293.14 92.1 1302.68 92.1C1312.04 92.1 1320.17 94.17 1327.07 98.31C1333.97 102.45 1339.25 108.33 1342.91 115.95C1346.63 123.57 1348.49 132.51 1348.49 142.77C1348.49 144.39 1348.37 146.88 1348.13 150.24H1279.91ZM1303.76 113.34C1290.86 113.34 1283.12 119.58 1280.54 132.06H1323.38C1322.54 125.52 1320.53 120.78 1317.35 117.84C1314.23 114.84 1309.7 113.34 1303.76 113.34ZM1391.5 99.48C1396.96 96.12 1403.44 94.44 1410.94 94.44C1412.98 94.44 1414.84 94.56 1416.52 94.8V117.66C1414.66 117.06 1412.35 116.76 1409.59 116.76C1405.03 116.76 1400.98 117.6 1397.44 119.28C1393.12 121.26 1389.82 124.2 1387.54 128.1C1385.26 132 1384.12 136.74 1384.12 142.32V192H1359.46V94.8H1381.06V110.46C1383.76 105.6 1387.24 101.94 1391.5 99.48Z" fill="white"/>
</svg>
